<?xml version="1.0" encoding="UTF-8"?>
<svg width="512" height="512" viewBox="0 0 512 512" fill="none" xmlns="http://www.w3.org/2000/svg">
  <rect width="512" height="512" rx="128" fill="#3B82F6"/>
  <path d="M256 128C179.307 128 128 179.307 128 256C128 332.693 179.307 384 256 384C332.693 384 384 332.693 384 256C384 179.307 332.693 128 256 128ZM256 352C197.019 352 160 314.981 160 256C160 197.019 197.019 160 256 160C314.981 160 352 197.019 352 256C352 314.981 314.981 352 256 352Z" fill="white"/>
  <path d="M256 192C238.327 192 224 206.327 224 224V288C224 305.673 238.327 320 256 320C273.673 320 288 305.673 288 288V224C288 206.327 273.673 192 256 192Z" fill="white"/>
  <path d="M256 352C273.673 352 288 337.673 288 320C288 302.327 273.673 288 256 288C238.327 288 224 302.327 224 320C224 337.673 238.327 352 256 352Z" fill="white"/>
</svg> 